# xmcd CD database file
#
# Track frame offsets:
#	150
#	12976
#	29014
#	41544
#	61408
#	73118
#	86188
#	104243
#	119209
#	133566
#	150993
#	162135
#
# Disc length: 2353 seconds
#
# Revision: 3
# Processed by: cddbd v1.5.2PL0 Copyright (c) Steve Scherf et al.
# Submitted via: ACXtractor (MTCDDB.DLL V2003.12.21)
#
DISCID=ab092f0c
DTITLE=La Mississippi - Sietevidas
DYEAR=2003
DGENRE=Blues
TTITLE0=Todo otra vez
TTITLE1=El dieciseis
TTITLE2=En busca de pleitos
TTITLE3=El ultimo blues
TTITLE4=Ermitaño
TTITLE5=La casa
TTITLE6=Bebo por amor
TTITLE7=Testigo
TTITLE8=Lejos de aca
TTITLE9=Veinte chicas veinte
TTITLE10=Tarde hasta para un gato
TTITLE11=Sopa de hueso
EXTD=ID3G:   0 YEAR: 2003
EXTT0=
EXTT1=
EXTT2=
EXTT3=
EXTT4=
EXTT5=
EXTT6=
EXTT7=
EXTT8=
EXTT9=
EXTT10=
EXTT11=
PLAYORDER=
